<?xml version="1.0" encoding="UTF-8"?>
<svg width="40px" height="30px" viewBox="0 0 40 30" version="1.1" xmlns="http://www.w3.org/2000/svg" xmlns:xlink="http://www.w3.org/1999/xlink">
    <title>24DAD9DF-89D9-4778-A17A-886217A9FB15</title>
    <g id="DNI-MENOR" stroke="none" stroke-width="1" fill="none" fill-rule="evenodd">
        <g id="MQS_CMI_DNI-MENOR-01" transform="translate(-168, -148)" fill="#008488" fill-rule="nonzero">
            <g id="id-card" transform="translate(168, 148)">
                <path d="M35.4165649,30 L4.58343508,30 C2.05505375,30 0,27.9449462 0,25.4165649 L0,4.58343508 C0,2.05505375 2.05505375,0 4.58343508,0 L35.4165649,0 C37.9449462,0 40,2.05505375 40,4.58343508 L40,25.4165649 C40,27.9449463 37.9449463,30 35.4165649,30 Z M4.58343508,2.5 C3.43505859,2.5 2.5,3.43505859 2.5,4.58343508 L2.5,25.4165649 C2.5,26.5649414 3.43505859,27.5 4.58343508,27.5 L35.4165649,27.5 C36.5649414,27.5 37.5,26.5649414 37.5,25.4165649 L37.5,4.58343508 C37.5,3.43505859 36.5649414,2.5 35.4165649,2.5 L4.58343508,2.5 Z" id="Shape"></path>
                <path d="M12.5,15 C10.203247,15 8.33343508,13.1298828 8.33343508,10.8334351 C8.33343508,8.53668211 10.203247,6.66656492 12.5,6.66656492 C14.796753,6.66656492 16.6665649,8.53668211 16.6665649,10.8334351 C16.6665649,13.1298828 14.796753,15 12.5,15 Z M12.5,9.16656492 C11.5817261,9.16656492 10.8334351,9.91485594 10.8334351,10.8334351 C10.8334351,11.751709 11.5817261,12.5 12.5,12.5 C13.4182739,12.5 14.1665649,11.751709 14.1665649,10.8334351 C14.1665649,9.91485594 13.4182739,9.16656492 12.5,9.16656492 Z" id="Shape"></path>
                <path d="M18.75,23.3334351 C18.0599976,23.3334351 17.5,22.7734375 17.5,22.0834351 L17.5,21.25 C17.5,20.1016235 16.5649414,19.1665649 15.4165649,19.1665649 L9.58343508,19.1665649 C8.43505859,19.1665649 7.5,20.1016235 7.5,21.25 L7.5,22.0834351 C7.5,22.7734375 6.94000242,23.3334351 6.25,23.3334351 C5.55999758,23.3334351 5,22.7734375 5,22.0834351 L5,21.25 C5,18.7216187 7.05505375,16.6665649 9.58343508,16.6665649 L15.4165649,16.6665649 C17.9449463,16.6665649 20,18.7216187 20,21.25 L20,22.0834351 C20,22.7734375 19.4400024,23.3334351 18.75,23.3334351 L18.75,23.3334351 Z" id="Path"></path>
                <path d="M33.75,10 L24.5834351,10 C23.8934327,10 23.3334351,9.44000242 23.3334351,8.75 C23.3334351,8.05999758 23.8934327,7.5 24.5834351,7.5 L33.75,7.5 C34.4400024,7.5 35,8.05999758 35,8.75 C35,9.44000242 34.4400024,10 33.75,10 Z" id="Path"></path>
                <path d="M33.75,16.6665649 L24.5834351,16.6665649 C23.8934327,16.6665649 23.3334351,16.1065673 23.3334351,15.4165649 C23.3334351,14.7265625 23.8934327,14.1665649 24.5834351,14.1665649 L33.75,14.1665649 C34.4400024,14.1665649 35,14.7265625 35,15.4165649 C35,16.1065673 34.4400024,16.6665649 33.75,16.6665649 Z" id="Path"></path>
                <path d="M33.75,23.3334351 L24.5834351,23.3334351 C23.8934327,23.3334351 23.3334351,22.7734375 23.3334351,22.0834351 C23.3334351,21.3934327 23.8934327,20.8334351 24.5834351,20.8334351 L33.75,20.8334351 C34.4400024,20.8334351 35,21.3934327 35,22.0834351 C35,22.7734375 34.4400024,23.3334351 33.75,23.3334351 Z" id="Path"></path>
            </g>
        </g>
    </g>
</svg>